<svg width="120" height="151" viewBox="0 0 120 151" fill="none" xmlns="http://www.w3.org/2000/svg">
<path d="M50.6063 59.9537C48.8868 59.0567 46.3297 57.7694 46.3297 57.7694L43.7162 58.4975C43.7162 58.4975 45.4579 61.0721 47.9928 62.3806C50.3687 63.6071 56.8154 65.2228 61.2978 64.8076C64.624 64.4995 66.7105 63.8805 69.8509 62.3806C72.3457 61.1891 74.8403 58.4975 74.8403 58.4975L72.2268 57.7694C72.2268 57.7694 70.079 59.0566 68.1878 59.9537C64.5898 61.6603 62.1697 62.1251 58.2091 61.8952C55.1536 61.7179 53.332 61.3754 50.6063 59.9537Z" fill="#EBE9E9"/>
<path d="M27.1029 65.0631C33.0666 61.395 43.7341 58.5102 43.7341 58.5102C43.7341 58.5102 44.9919 59.7491 46.3476 60.6945C48.4823 62.1831 50.4922 63.2109 53.0001 63.8496C57.9516 65.1106 61.1628 64.8037 66.0674 63.3642C69.6975 62.2988 74.8582 58.5102 74.8582 58.5102C74.8582 58.5102 79.2977 60.4254 82.2234 61.4226C88.6043 63.5975 97.6488 68.9335 97.6488 68.9335C97.6488 68.9335 90.5834 81.2617 87.6879 90.0609C84.7369 99.0292 85.0149 104.573 83.1738 113.845C81.4772 122.389 81.9089 127.627 78.6596 135.688C76.2058 141.776 70.344 150.25 70.344 150.25H24.727L26.1525 113.845L21.1632 142.969L23.3015 150.25H2.39371C2.39371 150.25 0.188383 143.244 0.0178287 138.6C-0.190332 132.933 1.47449 129.875 2.39371 124.281C3.99729 114.524 3.9717 108.853 6.43272 99.2834L6.51178 98.976C8.05071 92.9907 8.94893 89.4973 11.4221 83.7508C13.1925 79.637 13.9078 77.0722 16.649 73.5575C19.8995 69.3897 22.6339 67.8118 27.1029 65.0631Z" fill="#9BCED2"/>
<path d="M95.0532 150.25H70.344C70.344 150.25 73.049 144.742 75.3334 140.542C77.7092 136.174 77.4499 136.481 78.8972 131.32C80.9426 124.025 81.9639 115.221 83.4114 107.778C84.9155 100.044 85.2531 94.5465 87.9255 87.1486C90.7561 79.3132 97.4112 68.6908 97.4112 68.6908C97.4112 68.6908 102.456 72.8288 104.794 76.7126C107.024 80.4168 107.338 82.9941 108.596 87.1486C111.623 97.1524 111.065 103.296 112.872 113.603C115.391 127.966 120 150.25 120 150.25H97.4112C97.4112 150.25 96.3401 138.183 95.0532 130.834C94.0182 124.924 92.4397 115.544 92.4397 115.544C92.4397 115.544 92.2839 126.605 92.9149 133.504C93.5154 140.07 95.0532 150.25 95.0532 150.25Z" fill="#478DB0"/>
<path d="M76.9965 23.8044C76.8377 19.3166 75.571 12.3977 75.571 12.3977C75.571 12.3977 73.5496 12.2714 72.2269 12.3977C70.5615 12.5566 70.5638 12.3977 68.6631 12.3977C67.1527 12.3977 64.7994 12.097 63.6737 13.1257C62.9618 13.7764 62.6166 14.8749 62.2661 15.7827C61.514 17.7304 62.1587 19.4646 61.2979 21.3647C60.4983 23.1296 60.3548 22.8716 58.6844 23.8044C57.3417 24.5542 56.0709 23.8044 56.0709 23.8044C56.0709 23.8044 54.9601 22.349 53.4574 21.8501C52.575 21.5571 50.5062 21.7132 49.656 22.0928C48.7538 22.4957 48.3886 23.3507 47.9949 24.2724L47.9929 24.2771C47.398 25.6697 48.0115 26.9569 48.4681 28.4029C48.9421 29.9042 49.488 30.9904 50.3688 32.2861C51.5014 33.9521 52.0511 35.4654 53.4574 36.8974C55.2986 38.7721 56.8265 39.3794 59.1596 40.5506C61.8476 41.9 64.2462 42.3276 67.2376 42.4794C70.2547 42.6325 72.5889 42.8342 74.6206 40.5506C75.8842 39.1304 75.8967 37.8173 76.2838 35.9393C77.2341 31.3281 77.1644 28.5488 76.9965 23.8044Z" fill="#F35F8B"/>
<path d="M57.7519 62.8788C48.2109 62.3055 46.3477 57.7821 46.3477 57.7821C46.3477 57.7821 48.5385 56.6945 49.6739 53.4136C52.1817 46.1665 49.6739 30.3573 49.6739 30.3573C49.6739 30.3573 52.6089 35.8015 55.6136 38.1236C59.3574 41.017 67.0178 42.2495 67.0178 42.2495C67.0178 42.2495 66.0828 48.5815 67.7306 52.2001C68.8981 54.7638 72.2448 57.7821 72.2448 57.7821C72.2448 57.7821 65.8299 63.3642 57.7519 62.8788Z" fill="#FD5B59"/>
<path d="M48.0107 36.4247C48.6717 37.1481 50.6063 37.3828 50.6063 37.3828L49.9114 30.8427C49.9114 30.8427 48.4894 28.3933 48.4859 26.4741C48.4836 25.2096 48.3918 24.2781 49.1987 23.319C49.9294 22.4505 50.6915 22.1394 51.8121 22.1056C53.7839 22.046 55.6136 25.5033 55.6136 25.5033C55.6136 25.5033 59.1052 25.4416 60.6029 24.0471C62.0166 22.7309 62.1307 21.3523 62.5036 19.4359C62.8654 17.5767 62.5035 16.0381 62.9788 14.8246C63.4411 13.644 64.1208 13.2938 65.3547 13.1257C68.9185 12.6403 72.7312 13.6111 75.3334 12.6403C77.0098 12.0149 78.363 11.1842 79.3724 10.2134C80.9738 8.67308 82.065 7.60485 81.9859 5.35941C81.9319 3.8292 81.7595 2.63764 80.5603 1.71895C79.6099 0.990856 75.2116 2.57439 71.7696 2.44704C67.0416 2.27211 64.142 0.062988 59.4149 0.262762C56.1969 0.398765 54.5603 0.245886 51.8121 1.96165C49.9088 3.14995 49.8572 5.05165 48.0107 6.33021C46.3263 7.49655 45.0172 7.86132 43.4965 9.24258C41.1269 11.395 40.7117 14.819 40.6454 16.0381C40.4079 20.4067 40.5087 22.2584 41.8334 26.2314C43.327 30.7111 44.6845 32.7843 48.0107 36.4247Z" fill="#423950"/>
</svg>
