<svg width="1440" height="187" viewBox="0 0 1440 187" fill="none" xmlns="http://www.w3.org/2000/svg">
<g filter="url(#filter0_i_4_12)">
<path d="M0 113H65.5L104.5 0.5L124 163.5L160.5 70L208.5 139L217.5 113H323.5L377.5 51.5L408 151L427.5 113H477L509 77.5L551 139L637 113L664 51.5L696 113H791L813.5 151L836 113H1043L1073 51.5L1097 113H1124.5L1151.5 163.5L1178.5 113H1208.5L1228.5 77.5L1246.5 113H1440V187H0V113Z" fill="#2ECC71"/>
</g>
<defs>
<filter id="filter0_i_4_12" x="0" y="0.5" width="1440" height="190.5" filterUnits="userSpaceOnUse" color-interpolation-filters="sRGB">
<feFlood flood-opacity="0" result="BackgroundImageFix"/>
<feBlend mode="normal" in="SourceGraphic" in2="BackgroundImageFix" result="shape"/>
<feColorMatrix in="SourceAlpha" type="matrix" values="0 0 0 0 0 0 0 0 0 0 0 0 0 0 0 0 0 0 127 0" result="hardAlpha"/>
<feOffset dy="4"/>
<feGaussianBlur stdDeviation="2"/>
<feComposite in2="hardAlpha" operator="arithmetic" k2="-1" k3="1"/>
<feColorMatrix type="matrix" values="0 0 0 0 0 0 0 0 0 0 0 0 0 0 0 0 0 0 0.25 0"/>
<feBlend mode="normal" in2="shape" result="effect1_innerShadow_4_12"/>
</filter>
</defs>
</svg>
