<svg width="120" height="151" viewBox="0 0 120 151" fill="none" xmlns="http://www.w3.org/2000/svg">
<ellipse cx="61.3574" cy="24.5756" rx="15.7466" ry="17.9371" fill="#F95D82"/>
<path d="M52.9412 49.2619C54.0658 45.1643 52.1267 38.4505 52.1267 38.4505C52.1267 38.4505 57.1569 40.6035 60.2715 40.9077C63.3932 41.2125 68.4163 40.1705 68.4163 40.1705C68.4163 40.1705 67.4037 48.0088 69.7738 52.2105C71.5808 55.4139 72.7741 56.2756 76.0181 58.3533C79.0767 60.3123 84.7059 62.039 84.7059 62.039C84.7059 62.039 79.2923 63.5828 76.0181 64.9875C67.9511 68.4485 63.6903 71.4252 57.8281 77.5189C51.566 84.0282 48.6836 88.6087 46.1538 96.9303C43.7043 104.988 43.5787 110.06 45.0679 118.307C46.2791 125.016 48.1134 128.62 51.3122 134.77C54.6581 141.203 60.2715 150.135 60.2715 150.135H30.4072L38.8235 130.593L31.2217 109.707L22.5339 150.25H0C0 150.25 2.56901 138.284 4.0724 130.593C5.48495 123.367 5.94282 120.465 7.19934 112.503L7.33032 111.673C8.44641 104.602 8.37362 100.571 9.77376 93.736C11.213 86.7103 11.6096 82.3763 15.7466 76.2904C19.3616 70.9723 21.9072 68.4689 27.9638 65.479C33.9366 62.5304 45.3394 59.8276 48.5973 56.879C51.18 54.5415 52.0297 52.583 52.9412 49.2619Z" fill="#FE5C5A"/>
<path d="M97.7044 68.0668C93.1806 64.5992 84.4344 61.924 84.4344 61.924C84.4344 61.924 74.9897 64.4812 70.4542 67.084C62.7471 71.5068 58.0678 75.1925 51.737 83.3011C46.858 89.55 45.4345 93.7251 44.0299 101.238C42.6496 108.621 42.3917 113.063 44.0299 120.404C45.5196 127.079 47.7425 130.548 51.1865 136.621C54.3257 142.157 60.2715 150.135 60.2715 150.135H89.722L81.4644 131.952L88.3458 109.838C88.3458 109.838 90.4294 120.188 91.9241 126.792C93.9952 135.943 97.7044 150.135 97.7044 150.135H120L113.394 109.838C113.394 109.838 112.027 97.7487 110.091 90.181C108.848 85.3237 108.758 82.3405 106.237 77.8954C103.78 73.563 101.831 71.2304 97.7044 68.0668Z" fill="#478DB1"/>
<path d="M81.8969 130.478H38.7744V132.419L33.6652 150.135H89.7049L81.448 131.952L81.8969 130.478Z" fill="#D9D9D9" fill-opacity="0.5"/>
<path d="M56.4453 21.984C53.3342 23.6903 47.6026 24.3864 47.6026 24.3864C47.6026 24.3864 47.6832 30.2977 49.3711 33.5155C50.6513 35.956 53.1608 39.041 53.1608 39.041C53.1608 39.041 54.1714 44.5665 53.6661 48.4104C53.3639 50.7096 52.7621 52.4999 51.3923 54.4164C49.3711 57.2441 47.4768 58.291 43.8129 58.5004C41.7825 58.6165 40.6024 58.8394 38.7599 58.02C35.6627 56.6424 34.1534 55.07 32.4437 52.2542C30.0574 48.3238 30.2339 45.2416 30.6752 40.7227C31.0248 37.1422 31.9699 35.1411 33.4543 31.8338C35.3556 27.5977 38.0477 26.0735 40.2758 21.984C42.5177 17.8691 42.7625 15.3728 44.8235 11.1732C46.592 7.56961 47.9567 5.21027 51.3923 3.00505C55.4992 0.369014 58.8308 0.0129955 63.772 0.362416C68.3787 0.688176 71.3508 1.38182 74.8885 4.20625C78.7423 7.28292 79.5728 10.4155 80.9521 15.017C82.3878 19.8067 81.4574 22.7047 81.71 27.7497C81.8139 29.8242 82.6916 30.8575 83.4786 32.7948C85.5782 37.9635 90.1393 40.7213 90.5527 46.2482C90.8549 50.2886 90.8213 52.3206 88.0262 55.3773C85.5936 58.0377 83.1437 59.2199 79.4362 59.2212C76.5027 59.2221 74.8802 58.1104 72.6147 56.3383C69.6902 54.0505 69.3077 52.2029 68.5782 48.6786L68.5724 48.6506C67.9626 45.7049 68.3197 40.7227 68.3197 40.7227C68.3197 40.7227 73.6253 37.5996 74.8885 29.6717C75.6901 24.6412 75.6804 21.3964 73.6253 16.6987C71.92 12.8007 66.8038 8.05009 66.8038 8.05009C66.8038 8.05009 65.0814 13.2028 63.0141 15.978C60.9571 18.7394 59.528 20.2932 56.4453 21.984Z" fill="#3B3D52"/>
</svg>
